 <svg  version="1.0" xmlns="http://www.w3.org/2000/svg"  width="300.000000pt" height="161.000000pt" viewBox="0 0 300.000000 161.000000"  preserveAspectRatio="xMidYMid meet">  <g transform="translate(0.000000,161.000000) scale(0.100000,-0.100000)" fill="#ffffff" stroke="none"> <path d="M1226 1389 c-15 -22 -18 -23 -27 -6 -5 9 -15 17 -20 17 -6 0 -3 -10 5 -22 9 -12 16 -33 16 -45 0 -13 5 -23 10 -23 6 0 10 8 10 18 0 10 7 28 16 40 8 12 14 28 12 34 -3 7 -12 1 -22 -13z"/> <path d="M1054 1355 c-2 -52 13 -61 18 -12 l4 32 12 -27 c6 -16 16 -28 21 -28 5 0 14 12 19 28 l10 27 1 -32 c1 -51 21 -39 21 12 0 52 -19 61 -40 18 l-13 -28 -11 28 c-16 45 -41 35 -42 -18z"/> <path d="M635 1345 c-134 -36 -235 -94 -310 -177 -52 -58 -66 -107 -42 -147 23 -38 43 -34 39 9 -6 72 125 196 273 259 84 35 229 37 291 4 45 -24 54 -38 54 -86 -1 -88 -103 -196 -229 -242 -24 -9 -29 -14 -16 -14 12 -1 38 8 58 18 24 12 34 14 27 6 -12 -15 -54 -30 -110 -39 -22 -4 -30 -3 -21 3 8 5 9 10 3 12 -6 2 14 48 45 102 54 98 116 172 133 162 14 -9 23 15 10 29 -23 29 -61 29 -91 0 -16 -15 -29 -32 -29 -37 0 -4 -11 -23 -24 -40 -14 -18 -47 -72 -74 -120 l-49 -89 -22 28 c-16 21 -20 35 -15 57 4 20 3 27 -5 23 -20 -13 -12 -69 14 -96 l25 -26 -30 -74 c-50 -121 -50 -180 0 -180 13 0 18 11 23 53 3 28 18 80 33 115 l27 63 40 -6 c30 -6 38 -4 32 5 -5 9 -2 10 13 6 30 -10 121 36 172 85 81 79 113 197 71 265 -31 50 -110 84 -195 83 -39 0 -93 -6 -121 -14z m-159 -86 c-26 -17 -50 -28 -53 -26 -5 6 78 57 92 57 6 0 -12 -14 -39 -31z"/> <path d="M2184 1283 c-3 -10 -19 -45 -34 -78 -96 -203 -151 -354 -191 -521 -21 -87 -16 -125 17 -138 17 -7 44 9 44 26 0 6 -7 5 -15 -2 -67 -56 101 428 216 623 46 78 46 107 -2 107 -19 0 -32 -6 -35 -17z"/> <path d="M1552 1231 c-11 -31 -19 -33 -222 -61 -47 -6 -98 -16 -115 -22 -16 -6 -47 -13 -67 -15 -30 -4 -38 -2 -38 11 0 9 -4 16 -10 16 -13 0 -13 -26 0 -51 7 -12 21 -19 40 -19 27 0 30 -3 30 -30 0 -21 9 -39 27 -56 14 -13 24 -26 22 -28 -13 -11 -51 -26 -67 -26 -15 0 -21 -9 -25 -40 -7 -54 -38 -114 -61 -119 -17 -3 -19 2 -13 52 7 66 30 105 74 123 39 17 41 27 11 48 -31 22 -51 20 -76 -7 -24 -25 -72 -146 -72 -180 0 -28 39 -67 66 -67 38 0 93 84 94 142 1 17 12 28 45 44 44 20 45 21 75 3 16 -10 30 -22 30 -26 0 -5 -12 -26 -25 -48 -31 -50 -32 -90 -4 -106 29 -15 53 -1 109 67 65 79 62 88 -8 22 -61 -58 -109 -82 -59 -30 46 48 31 111 -36 148 -17 10 -16 13 7 55 14 24 26 56 26 71 0 20 6 29 23 33 145 33 192 43 195 40 2 -2 -3 -16 -11 -32 -34 -66 -79 -213 -83 -273 -5 -70 13 -123 49 -144 14 -9 22 -6 37 14 11 14 20 32 20 41 0 16 28 34 37 25 3 -3 -13 -54 -36 -113 -46 -123 -50 -148 -21 -163 28 -15 36 -7 44 37 3 21 21 85 39 143 32 102 34 104 68 111 81 16 119 17 119 4 0 -23 41 -65 64 -65 55 0 120 132 96 195 -8 21 -6 25 8 25 24 1 -33 50 -58 50 -10 0 -27 3 -37 6 -14 5 -15 4 -7 -5 9 -10 5 -25 -15 -64 -15 -29 -32 -67 -39 -84 -10 -29 -15 -33 -46 -33 -29 0 -36 4 -36 20 0 51 101 200 136 200 21 0 17 27 -6 33 -14 3 -27 -4 -44 -23 -17 -21 -30 -27 -45 -23 -38 10 -113 -79 -149 -173 -14 -40 -23 -50 -47 -54 -22 -4 -31 -12 -37 -38 -10 -37 -35 -52 -50 -31 -23 34 29 245 90 368 l27 54 125 -6 c143 -7 198 -19 222 -50 15 -18 18 -19 18 -5 0 22 -45 53 -99 68 -24 6 -93 12 -152 13 -97 2 -108 4 -103 19 3 10 -3 21 -15 27 -27 15 -28 15 -39 -18z m-262 -128 c0 -23 -37 -103 -46 -103 -14 0 -44 33 -44 50 0 9 5 21 12 28 7 7 8 12 3 13 -10 1 53 27 68 28 4 1 7 -7 7 -16z m445 -132 c-13 -27 -27 -68 -31 -90 -6 -35 -10 -41 -30 -41 -13 0 -24 2 -24 5 0 21 91 175 103 175 4 0 -4 -22 -18 -49z m191 -97 c-12 -60 -76 -115 -76 -64 0 11 6 20 13 20 9 0 9 2 -1 8 -20 13 -4 66 32 103 l31 34 3 -34 c2 -19 1 -49 -2 -67z"/> <path d="M2244 1060 c1 -44 16 -87 16 -46 0 9 12 28 27 42 29 27 30 27 -13 41 l-31 11 1 -48z"/> <path d="M2420 1043 c0 -7 5 -15 10 -18 7 -4 3 -17 -9 -33 -10 -15 -21 -37 -25 -49 -6 -18 -53 -63 -159 -151 -29 -25 -29 -8 -2 73 29 83 27 108 -7 103 -15 -2 -22 -11 -23 -28 -1 -14 -10 -55 -20 -91 -34 -119 0 -130 109 -34 l75 65 -6 -36 c-5 -28 -1 -40 17 -59 13 -14 33 -25 45 -25 52 0 116 129 93 190 -6 16 -5 26 4 32 17 11 -26 48 -56 48 -12 0 -27 5 -34 12 -9 9 -12 9 -12 1z m80 -121 c0 -47 -39 -126 -64 -131 -17 -3 -19 2 -13 53 9 94 77 162 77 78z"/> <path d="M2630 419 c-47 -5 -182 -10 -300 -11 -118 -1 -201 -5 -185 -9 32 -7 -240 -14 -340 -8 -33 2 -97 3 -142 3 -76 0 -108 9 -65 19 24 5 -691 0 -813 -6 -450 -24 -653 -39 -749 -56 -23 -4 68 -6 202 -4 133 1 248 6 255 10 7 4 374 8 817 9 773 0 992 6 1300 35 63 6 119 15 125 20 5 6 4 8 -5 8 -8 -1 -53 -6 -100 -10z"/> </g> </svg> 