<?xml version="1.0" standalone="no"?>
<!DOCTYPE svg PUBLIC "-//W3C//DTD SVG 20010904//EN"
 "http://www.w3.org/TR/2001/REC-SVG-20010904/DTD/svg10.dtd">
<svg version="1.0" xmlns="http://www.w3.org/2000/svg"
 width="450.000000pt" height="287.000000pt" viewBox="0 0 450.000000 287.000000"
 preserveAspectRatio="xMidYMid meet">
<metadata>
Created by potrace 1.10, written by Peter Selinger 2001-2011
</metadata>
<g transform="translate(0.000000,287.000000) scale(0.100000,-0.100000)"
fill="#000000" stroke="none">
<path d="M1928 2090 l-437 -5 -23 -23 -23 -23 0 -433 0 -434 24 -26 25 -26
729 2 730 3 21 28 c20 28 21 39 24 452 l3 424 -30 33 -29 33 -289 0 c-158 0
-485 -2 -725 -5z m1032 -32 c19 -21 20 -33 20 -447 0 -234 -4 -431 -8 -438 -4
-6 -19 -16 -32 -21 -40 -15 -1429 -10 -1456 5 -12 7 -23 25 -26 40 -2 16 -3
210 -3 432 l1 403 27 24 28 24 714 0 714 0 21 -22z"/>
<path d="M1521 2004 c-20 -26 -21 -37 -21 -399 0 -350 1 -373 19 -394 l19 -21
674 -5 c656 -5 676 -5 699 14 l24 19 3 379 c3 373 2 380 -18 406 l-21 27 -679
0 -679 0 -20 -26z m1382 -391 c-1 -214 -5 -389 -8 -390 -3 -2 -311 -3 -685 -3
l-680 0 0 390 0 390 688 0 687 0 -2 -387z"/>
<path d="M1796 1949 c3 -5 37 -9 76 -9 39 0 69 2 66 5 -9 9 -148 12 -142 4z"/>
<path d="M2014 1949 c-6 -11 436 -11 453 -1 6 4 -92 7 -218 8 -126 1 -232 -3
-235 -7z"/>
<path d="M2630 1950 c0 -5 7 -10 15 -10 8 0 15 5 15 10 0 6 -7 10 -15 10 -8 0
-15 -4 -15 -10z"/>
<path d="M2740 1950 c0 -5 21 -10 47 -10 55 0 54 5 -4 14 -27 4 -43 2 -43 -4z"/>
<path d="M1909 1885 c-56 -30 -62 -119 -13 -166 36 -34 102 -33 138 0 42 39
29 62 -32 60 -27 0 -27 0 -4 -11 29 -14 28 -26 -3 -40 -17 -8 -35 -8 -52 -2
-36 13 -42 34 -8 34 16 0 24 4 19 11 -3 6 -24 9 -45 7 -35 -3 -39 -1 -39 19 0
13 4 23 9 23 5 0 12 9 16 19 6 21 57 42 87 38 26 -5 57 -37 67 -71 l9 -31 1
28 c1 38 -14 64 -49 82 -36 19 -67 19 -101 0z"/>
<path d="M1990 1844 c0 -27 -25 -48 -45 -40 -9 3 -13 2 -10 -4 20 -32 85 14
66 47 -10 17 -10 17 -11 -3z"/>
<path d="M2208 1853 c57 -2 147 -2 200 0 53 1 7 3 -103 3 -110 0 -154 -2 -97
-3z"/>
<path d="M2208 1803 c57 -2 147 -2 200 0 53 1 7 3 -103 3 -110 0 -154 -2 -97
-3z"/>
<path d="M1758 1590 c-2 -116 0 -210 5 -210 4 0 7 95 7 210 0 116 -2 210 -5
210 -2 0 -6 -95 -7 -210z"/>
<path d="M1910 1615 c-57 -31 -65 -115 -15 -164 50 -51 164 -21 165 43 0 12 1
32 1 44 1 70 -85 114 -151 77z m118 -41 c12 -14 22 -34 22 -45 0 -16 -7 -19
-42 -20 -24 -1 -64 -2 -90 -2 -55 -2 -60 8 -27 55 39 54 95 59 137 12z m-8
-89 c0 -23 -46 -40 -77 -29 -39 13 -40 32 -1 37 68 8 78 7 78 -8z"/>
<path d="M1990 1574 c0 -28 -25 -48 -47 -40 -14 6 -15 4 -7 -4 27 -27 84 19
64 50 -8 12 -10 11 -10 -6z"/>
<path d="M2208 1583 c57 -2 147 -2 200 0 53 1 7 3 -103 3 -110 0 -154 -2 -97
-3z"/>
<path d="M2208 1533 c57 -2 147 -2 200 0 53 1 7 3 -103 3 -110 0 -154 -2 -97
-3z"/>
<path d="M2093 1373 c15 -2 39 -2 55 0 15 2 2 4 -28 4 -30 0 -43 -2 -27 -4z"/>
<path d="M2458 1373 c34 -2 88 -2 120 0 31 2 3 3 -63 3 -66 0 -92 -1 -57 -3z"/>
<path d="M2242 1344 c-27 -19 -29 -64 -4 -87 58 -53 137 28 82 83 -24 24 -48
25 -78 4z m18 -41 c0 14 7 18 32 15 37 -4 50 -27 19 -35 -12 -3 -21 -9 -21
-13 0 -5 -13 -2 -30 6 -16 9 -30 23 -30 32 0 13 2 13 15 -4 13 -18 14 -18 15
-1z"/>
<path d="M1774 1275 c-4 -9 -2 -21 4 -27 16 -16 47 -5 47 17 0 26 -42 34 -51
10z"/>
<path d="M1894 1275 c-4 -9 -2 -21 4 -27 16 -16 47 -5 47 17 0 26 -42 34 -51
10z"/>
<path d="M2014 1275 c-4 -9 -2 -21 4 -27 16 -16 47 -5 47 17 0 26 -42 34 -51
10z"/>
<path d="M2134 1275 c-4 -9 -2 -21 4 -27 16 -16 47 -5 47 17 0 26 -42 34 -51
10z"/>
<path d="M2374 1275 c-4 -9 -2 -21 4 -27 16 -16 47 -5 47 17 0 26 -42 34 -51
10z"/>
<path d="M2494 1275 c-4 -9 -2 -21 4 -27 16 -16 47 -5 47 17 0 26 -42 34 -51
10z"/>
<path d="M2614 1275 c-4 -9 -2 -21 4 -27 16 -16 47 -5 47 17 0 26 -42 34 -51
10z"/>
<path d="M1442 1116 c-25 -13 -62 -63 -62 -84 0 -6 -11 -36 -25 -64 -14 -29
-28 -70 -32 -90 -6 -44 -17 -54 -58 -61 -16 -3 -7 -4 20 -3 41 1 49 4 47 18
-4 27 87 240 116 271 29 30 28 32 -6 13z"/>
<path d="M2977 1124 c-3 -3 5 -16 18 -28 19 -16 115 -226 115 -250 0 -2 -7
-12 -16 -20 -13 -13 -46 -16 -201 -16 -103 0 -184 -2 -182 -4 10 -9 389 -14
389 -5 0 5 33 10 73 10 39 1 59 4 42 6 -93 11 -92 10 -98 56 -5 38 -46 141
-82 207 -15 28 -48 53 -58 44z"/>
<path d="M1475 1060 c-5 -12 -4 -13 6 -2 17 16 29 15 29 -3 0 -13 86 -15 710
-15 645 0 710 1 710 16 0 11 5 14 17 10 10 -4 15 -5 12 -1 -3 3 -337 6 -742 8
-647 2 -737 0 -742 -13z"/>
<path d="M1490 1005 c0 -13 86 -15 731 -15 580 0 730 3 727 13 -4 9 -161 13
-731 15 -642 2 -727 0 -727 -13z"/>
<path d="M1477 963 c-4 -3 -7 -10 -7 -15 0 -4 338 -8 751 -8 596 0 750 3 747
13 -4 9 -163 13 -745 15 -407 1 -743 -1 -746 -5z"/>
<path d="M2060 873 l0 -28 158 1 157 1 0 24 0 24 -157 3 -158 3 0 -28z"/>
<path d="M2065 810 c3 -5 17 -10 31 -10 13 0 24 5 24 10 0 6 -14 10 -31 10
-17 0 -28 -4 -24 -10z"/>
<path d="M1310 759 c51 -8 1549 -3 1558 5 3 3 -357 5 -799 4 -442 0 -784 -4
-759 -9z"/>
<path d="M3107 763 c18 -2 50 -2 70 0 21 2 7 4 -32 4 -38 0 -55 -2 -38 -4z"/>
</g>
</svg>
